<?xml version="1.0" encoding="UTF-8"?>
<svg id="Ebene_1" xmlns="http://www.w3.org/2000/svg" version="1.1" viewBox="0 0 429 512">
  <!-- Generator: Adobe Illustrator 29.3.1, SVG Export Plug-In . SVG Version: 2.1.0 Build 151)  -->
  <defs>
    <style>
      .st0, .st1 {
        fill: #fff;
      }

      .st1, .st2 {
        fill-rule: evenodd;
      }

      .st3 {
        fill: #879aa0;
      }

      .st2 {
        fill: #ffab40;
      }

      .st4 {
        fill: #5f6b75;
      }
    </style>
  </defs>
  <g id="Ebene_11">
    <g>
      <path class="st4" d="M0,484.8V27.1C0,12.2,12.9,0,28.7,0h42.8l57.2,269.4-57.2,242.5H28.7C12.9,511.9,0,499.8,0,484.8h0Z"/>
      <path class="st3" d="M71.5,511.9V0h328.8c15.8,0,28.7,12.1,28.7,27.1v457.9c0,14.9-12.9,27.1-28.7,27.1H71.5v-.2Z"/>
      <path class="st2" d="M128.7,67.4v40.4h157.2v-40.4h-157.2Z"/>
      <path class="st2" d="M171.5,134.7v40.4h114.4v-40.4h-114.4Z"/>
      <path class="st1" d="M357.4,0v215.6l-50-40.4-50,40.4V0h100Z"/>
    </g>
    <g>
      <g>
        <path class="st0" d="M192,361.4v11.4h-20.5v59.8h-13.2v-59.8h-20.5v-11.4h54.2Z"/>
        <path class="st0" d="M199.5,432.6v-71.2h13.2v29.4h35.1v-29.4h13.2v71.2h-13.2v-30.4h-35.1v30.4h-13.2,0Z"/>
        <path class="st0" d="M324.8,361.4v11.4h-35.7v18h33.9v11.8h-34.1v18.7h36.6v11.4h-49.4v-71.2h48.8-.1,0Z"/>
        <path class="st0" d="M350.8,361.4v71.2h-13.2v-71.2h13.2ZM401,361.4l-30.4,33.2,33.6,38h-18.3l-27.5-33.3v-8.6l26.5-29.4h16.1,0Z"/>
      </g>
      <g>
        <path class="st0" d="M93.9,333.1v-71.2h33.3c13.6,0,20.3,5.6,20.3,16.5s-4.4,13.9-13.3,17.4c9.5,1.8,14.2,7.2,14.2,16.2,0,14-7.5,21.1-22.2,21.1h-32.3ZM125.6,321.7c5.8,0,8.8-2.9,8.8-8.9s-4.4-11.1-13.2-11.1h-3.9v-8.5c11-1.9,16.4-6.4,16.4-13.7s-2.5-6-7.3-6h-19.3v48.3h18.6-.1Z"/>
        <path class="st0" d="M172.8,261.9v71.2h-13.2v-71.2h13.2Z"/>
        <path class="st0" d="M187.8,333.1v-71.2h33.3c13.6,0,20.3,5.6,20.3,16.5s-4.4,13.9-13.3,17.4c9.5,1.8,14.2,7.2,14.2,16.2,0,14-7.5,21.1-22.2,21.1h-32.3,0ZM219.5,321.7c5.8,0,8.8-2.9,8.8-8.9s-4.4-11.1-13.2-11.1h-3.9v-8.5c11-1.9,16.4-6.4,16.4-13.7s-2.5-6-7.3-6h-19.3v48.3h18.6,0Z"/>
        <path class="st0" d="M266.7,261.9v59.8h28.2v11.4h-41.5v-71.2h13.3Z"/>
        <path class="st0" d="M320.7,261.9v71.2h-13.2v-71.2h13.2Z"/>
        <path class="st0" d="M333.1,297.6c0-24.1,12-36.3,35.8-36.3s35.2,12.1,35.2,36.3-11.7,36-35.2,36-34.7-12-35.8-36ZM369,322.2c14.3,0,21.5-8.3,21.5-24.9s-7.2-24.4-21.5-24.4-22.1,8.2-22.1,24.4,7.3,24.9,22.1,24.9Z"/>
      </g>
    </g>
  </g>
</svg>