<?xml version="1.0" encoding="UTF-8"?>
<svg id="a" data-name="Ebene 1" xmlns="http://www.w3.org/2000/svg" xmlns:xlink="http://www.w3.org/1999/xlink" viewBox="0 0 1024 1024">
  <defs>
    <style>
      .c {
        fill: url(#b);
      }
    </style>
    <linearGradient id="b" data-name="Unbenannter Verlauf 5" x1="512.35" y1="877.72" x2="512.35" y2="154.54" gradientUnits="userSpaceOnUse">
      <stop offset="0" stop-color="#ff8500"/>
      <stop offset="1" stop-color="#ffb800"/>
    </linearGradient>
  </defs>
  <path class="c" d="M887.63,481.35l-117.7-117.7v-135.97c0-24.58-19.92-44.51-44.54-44.51s-44.49,19.92-44.49,44.51v46.94l-87.64-87.64c-43.33-43.31-118.66-43.23-161.9.08L137.06,481.35c-17.37,17.41-17.37,45.57,0,62.96,17.38,17.4,45.6,17.4,62.98,0L494.31,250.01c9.59-9.54,26.48-9.54,36.02-.03l294.32,294.33c8.73,8.7,20.11,13.03,31.48,13.03s22.8-4.33,31.5-13.03c17.38-17.38,17.38-45.55,0-62.96ZM527.81,334.49c-8.55-8.55-22.39-8.55-30.92,0l-258.87,258.79c-4.09,4.09-6.4,9.66-6.4,15.48v188.75c0,44.29,35.91,80.2,80.2,80.2h128.17v-198.49h144.7v198.49h128.17c44.29,0,80.2-35.91,80.2-80.2v-188.75c0-5.82-2.3-11.4-6.4-15.48l-258.84-258.79Z"/>
</svg>