<?xml version="1.0" encoding="UTF-8"?>
<svg id="Ebene_1" xmlns="http://www.w3.org/2000/svg" viewBox="0 0 738.23 511.08">
  <defs>
    <style>
      .cls-1 {
        fill: #ffab40;
      }

      .cls-2 {
        fill: #424242;
      }

      .cls-3 {
        fill: #616161;
      }
    </style>
  </defs>
  <path class="cls-1" d="M558.4,113.57c-47.32,0-90.86,18.93-123.04,49.22-32.18-30.29-75.72-49.22-123.04-49.22-98.43,0-179.82,81.39-179.82,179.82v217.68h113.57v-236.61c0-35.96,30.29-66.25,66.25-66.25s66.25,30.29,66.25,66.25v236.61h113.57v-236.61c0-35.96,30.29-66.25,66.25-66.25s66.25,30.29,66.25,66.25v236.61h113.57v-217.68c0-98.43-81.39-179.82-179.82-179.82Z"/>
  <path d="M28.39,117.36h18.93v299.08h-18.93V117.36Z"/>
  <path class="cls-2" d="M340.72,56.79c20.82,7.57,49.22,37.86,56.79,56.79-34.07,32.18-49.22,54.89-56.79,113.57-1.89,20.82-17.04,32.18-37.86,18.93-58.68-35.96-113.57-37.86-151.43-37.86-18.93-18.93-9.46-70.04,0-94.64l113.57,18.93,75.72-75.72Z"/>
  <path class="cls-3" d="M265.01,132.5H0L208.22,0h265.01l-208.22,132.5Z"/>
  <path class="cls-2" d="M66.25,378.58c0-41.64-13.25-75.72-28.39-75.72s-28.39,34.07-28.39,75.72,13.25,75.72,28.39,75.72,28.39-34.07,28.39-75.72Z"/>
</svg>