<svg id="RG" xmlns="http://www.w3.org/2000/svg" viewBox="0 0 512 268.3">
  <path d="M35.35,266.45V1.85h112.87c50.33,0,75.49,21.16,75.49,63.47,0,34.42-24.61,59.89-73.83,76.42l90.85,124.71h-45.15l-84.19-118.98v-22.39c50.58-8.02,75.86-27.45,75.86-58.29,0-24.42-14.06-36.64-42.19-36.64h-75.49v236.29h-34.23Z"></path>
  <path d="M476.65,256.09c-21.34,8.14-44.35,12.21-69.02,12.21-95.85,0-143.77-45.95-143.77-137.85C263.86,43.48,310.12,0,402.64,0c26.52,0,51.19,3.7,74.01,11.1v29.61c-22.82-8.63-46.26-12.95-70.31-12.95-72.16,0-108.24,34.23-108.24,102.69,0,73.4,35.53,110.09,106.58,110.09,11.35,0,23.93-1.48,37.75-4.44v-89.93h34.23v109.91Z"></path>
</svg>