<?xml version="1.0" encoding="UTF-8"?>
<svg id="Ebene_1" xmlns="http://www.w3.org/2000/svg" version="1.1" viewBox="0 0 512 218.5">
  <!-- Generator: Adobe Illustrator 29.2.1, SVG Export Plug-In . SVG Version: 2.1.0 Build 116)  -->
  <defs>
    <style>
      .st0 {
        fill: #036;
      }

      .st1 {
        fill: #fb8b00;
      }
    </style>
  </defs>
  <polygon class="st0" points="0 0 0 62.4 43.7 62.4 43.7 218.4 106.1 156.2 106.1 62.4 137.3 62.4 199.7 0 12.5 0 0 0"/>
  <path class="st1" d="M260.8-.1c-.8,0-2,0-3.6.1-49.3,2.5-88.7,43.9-88.7,93.6v31.3c0,17.8-13.4,31.2-31.2,31.2h-9.1l-62.4,62.4h71.6c3.2,0,6.4-.2,9.6-.5,3.1-.3,6.1-.8,9.2-1.5,1.5-.3,3.1-.6,4.6-1,3-.8,5.9-1.8,8.8-2.8,1.4-.5,2.8-1.1,4.2-1.7,32.9-14,56.3-46.5,57.2-84h40.4v-35.6h-40.1c1-16.2,13.2-28.2,29.3-29.1-1.1,0-.4,0,1.8,0h9.1L333.6,0h-71.5s-.5,0-1.3-.1h0Z"/>
  <path class="st0" d="M355.6,0l-62.4,62.4v28c0,1.4,0,3.2,0,3.2v31.3c0,51.3,42.3,93.6,93.6,93.6h31.2c51.3,0,93.6-42.3,93.6-93.6v-31.3C511.6,42.3,469.4,0,418,0h-46.8v62.4h46.8c17.8,0,31.2,13.4,31.2,31.2v31.3c0,17.8-13.4,31.2-31.2,31.2h-31.2c-17.8,0-31.2-13.4-31.2-31.2v-31.3c0-2.1,0-2.7,0-1.7V0h0Z"/>
</svg>